HIERARCHY
ROOT root
{
	OFFSET	0	13.1	24.9
	CHANNELS 6  Xposition Yposition Zposition Xrotation Yrotation Zrotation
	JOINT spine_1
	{
		OFFSET	0	9.99999	0
		CHANNELS 3  Xrotation Yrotation Zrotation
		JOINT spine_2
		{
			OFFSET	0	112	-10
			CHANNELS 3  Xrotation Yrotation Zrotation
			JOINT spine_3
			{
				OFFSET	0	206.5	19.3
				CHANNELS 3  Xrotation Yrotation Zrotation
				JOINT spine_4
				{
					OFFSET	0	110.4	14.6
					CHANNELS 3  Xrotation Yrotation Zrotation
					JOINT neck_1
					{
						OFFSET	0	71.8	-50.3
						CHANNELS 3  Xrotation Yrotation Zrotation
						JOINT neck_2
						{
							OFFSET	0	86.2	-25.8
							CHANNELS 3  Xrotation Yrotation Zrotation
							JOINT head_ee
							{
								OFFSET	0	179.8	-8.7
								CHANNELS 3  Xrotation Yrotation Zrotation
								End Site
								{
									OFFSET	1	0	0
								}
							}
						}
					}
					JOINT left_clavicle
					{
						OFFSET	-43.2	22.4	-70.8
						CHANNELS 3  Xrotation Yrotation Zrotation
						JOINT left_shoulder
						{
							OFFSET	-93.9	-5.79999	48.7
							CHANNELS 3  Xrotation Yrotation Zrotation
							JOINT left_elbow
							{
								OFFSET	-291.4	-30.8	15.2
								CHANNELS 3  Xrotation Yrotation Zrotation
								JOINT left_lowarm_twist
								{
									OFFSET	-110.7	-3.89999	13.6
									CHANNELS 3  Xrotation Yrotation Zrotation
									JOINT left_hand
									{
										OFFSET	-110.7	-3.89999	13.6
										CHANNELS 3  Xrotation Yrotation Zrotation
										JOINT left_ee
										{
											OFFSET	-80.8	-5.10001	12.1
											CHANNELS 3  Xrotation Yrotation Zrotation
											End Site
											{
												OFFSET	1	0	0
											}
										}
									}
								}
							}
						}
					}
					JOINT right_clavicle
					{
						OFFSET	43.2	22.4	-70.8
						CHANNELS 3  Xrotation Yrotation Zrotation
						JOINT right_shoulder
						{
							OFFSET	93.9	-5.79999	48.7
							CHANNELS 3  Xrotation Yrotation Zrotation
							JOINT right_elbow
							{
								OFFSET	291.4	-30.8	15.2
								CHANNELS 3  Xrotation Yrotation Zrotation
								JOINT right_lowarm_twist
								{
									OFFSET	110.7	-3.89999	13.6
									CHANNELS 3  Xrotation Yrotation Zrotation
									JOINT right_hand
									{
										OFFSET	110.7	-3.89999	13.6
										CHANNELS 3  Xrotation Yrotation Zrotation
										JOINT right_ee
										{
											OFFSET	80.8	-5.10001	12.1
											CHANNELS 3  Xrotation Yrotation Zrotation
											End Site
											{
												OFFSET	1	0	0
											}
										}
									}
								}
							}
						}
					}
				}
			}
		}
	}
	JOINT left_hip
	{
		OFFSET	-82.8	-127.5	0.300001
		CHANNELS 3  Xrotation Yrotation Zrotation
		JOINT left_knee
		{
			OFFSET	-28.2	-396.7	2.2
			CHANNELS 3  Xrotation Yrotation Zrotation
			JOINT left_ankle
			{
				OFFSET	-11.7	-411.3	35.4
				CHANNELS 3  Xrotation Yrotation Zrotation
				JOINT left_toes
				{
					OFFSET	0	-60	-88.6
					CHANNELS 3  Xrotation Yrotation Zrotation
					JOINT left_foot_ee
					{
						OFFSET	-22.5	-16.5	-42.2
						CHANNELS 3  Xrotation Yrotation Zrotation
						End Site
						{
							OFFSET	1	0	0
						}
					}
				}
			}
		}
	}
	JOINT right_hip
	{
		OFFSET	82.8	-127.5	0.300001
		CHANNELS 3  Xrotation Yrotation Zrotation
		JOINT right_knee
		{
			OFFSET	28.2	-396.7	2.2
			CHANNELS 3  Xrotation Yrotation Zrotation
			JOINT right_ankle
			{
				OFFSET	11.7	-411.3	35.4
				CHANNELS 3  Xrotation Yrotation Zrotation
				JOINT right_toes
				{
					OFFSET	0	-60	-88.6
					CHANNELS 3  Xrotation Yrotation Zrotation
					JOINT right_foot_ee
					{
						OFFSET	22.5	-16.5	-42.2
						CHANNELS 3  Xrotation Yrotation Zrotation
						End Site
						{
							OFFSET	1	0	0
						}
					}
				}
			}
		}
	}
}
MOTION
Frames: 5
Frame Time: 0.02
1372.05 701.618 -1475.22 -18.3794022185 9.39604369233 2.31979342069 6.13299 0.241128 0.958435 6.13349 0.179654 0.971834 6.13594 0.0771583 0.985283 6.13466 0.23179 0.960736 -13.8336 10.6 -1.42673 -14.1713 21.0839 2.04057 -0.0 0.0 -0.0 5.07943 -6.68853 9.53792 3.2477 9.16323 57.0026 2.23497 -47.9043 0.992937 72.1769 -2.96933 -8.10878 2.14056 -18.4388 6.42224 -0.0 0.0 -0.0 12.3943 13.624 -25.14 -23.2155 -7.16185 -65.3334 0.197411 5.58543 -0.00962983 -71.3393 6.71705 -5.31227 5.02419 14.6247 -28.5831 0.0 0.0 0.0 3.23114 36.822 10.0027 -12.7784 0.311772 1.9322 39.8194 -8.69798 -4.9824 -23.8645 0.0 0.0 -0.0 0.0 -0.0 55.0586 24.2212 -12.7109 -6.59013 -0.2147 -0.988047 0.172151 1.6135 0.0255727 -25.3834 0.0 0.0 0.0 0.0 0.0 
1335.24312822 694.209 -1518.00208703 -16.1669124082 12.6058431888 2.41554133265 4.85454 0.327994 0.832548 4.85488 0.274354 0.85173 4.85867 0.164328 0.879606 4.85771 0.301179 0.842619 -11.7042 8.17424 -2.1917 -11.8345 16.9019 0.179197 -0.0 0.0 -0.0 5.43732 -4.82415 10.3541 -1.9644 2.68205 58.1603 2.56446 -51.7823 1.2449 81.6664 -4.03202 -8.7009 1.50475 -13.5352 4.37202 -0.0 0.0 -0.0 11.9602 14.1395 -24.1337 -22.7951 -10.0556 -65.0205 0.201338 5.69581 -0.0100158 -71.6193 6.75283 -5.31385 5.09522 17.9115 -27.2254 0.0 0.0 0.0 2.08544 34.4901 9.19533 -19.5769 0.300433 2.97461 37.835 -16.3851 -5.01533 -21.0319 0.0 0.0 -0.0 0.0 -0.0 54.2177 25.5672 -11.8446 -16.4078 -0.321113 -2.48889 -1.38221 12.4171 -0.217193 -8.10964 0.0 0.0 0.0 0.0 0.0 
1335.7700621 694.209 -1518.44983792 -16.1244596696 11.9315192668 2.21576390002 4.85454 0.327994 0.832548 4.85488 0.274354 0.85173 4.85867 0.164328 0.879606 4.85771 0.301179 0.842619 -11.7042 8.17424 -2.1917 -11.8345 16.9019 0.179197 -0.0 0.0 -0.0 5.43732 -4.82415 10.3541 -1.9644 2.68205 58.1603 2.56446 -51.7823 1.2449 81.6664 -4.03202 -8.7009 1.50475 -13.5352 4.37202 -0.0 0.0 -0.0 11.9602 14.1395 -24.1337 -22.7951 -10.0556 -65.0205 0.201338 5.69581 -0.0100158 -71.6193 6.75283 -5.31385 5.09522 17.9115 -27.2254 0.0 0.0 0.0 2.08544 34.4901 9.19533 -19.5769 0.300433 2.97461 37.835 -16.3851 -5.01533 -21.0319 0.0 0.0 -0.0 0.0 -0.0 54.2177 25.5672 -11.8446 -16.4078 -0.321113 -2.48889 -1.38221 12.4171 -0.217193 -8.10964 0.0 0.0 0.0 0.0 0.0 
1320.54521244 698.775 -1539.53398864 -15.8634746023 13.1806498007 2.53587339661 4.53129 0.345737 0.857415 4.53165 0.290479 0.877676 4.53583 0.171925 0.908367 4.53482 0.313222 0.869819 -9.6932 7.30265 -2.95761 -9.73261 15.738 -1.09628 -0.0 0.0 -0.0 5.8276 -4.08819 11.1726 -3.83657 0.92835 58.8758 2.43249 -50.3035 1.14227 84.5074 -4.36763 -8.84316 1.34487 -12.1402 3.90536 -0.0 0.0 -0.0 11.9235 14.5368 -24.0383 -22.1155 -11.1628 -65.8441 0.20516 5.8032 -0.0103987 -71.6949 6.76248 -5.31425 5.09237 18.8892 -26.6272 0.0 0.0 0.0 1.46416 32.5317 9.21743 -20.8969 0.283899 3.17648 37.2001 -18.5673 -5.03452 -20.9189 0.0 0.0 -0.0 0.0 -0.0 53.6474 25.6764 -12.1456 -19.2273 -0.304033 -2.92109 -2.68289 15.3725 -0.431992 -2.23051 0.0 0.0 0.0 0.0 0.0 
1286.77131244 710.412 -1596.33715134 -15.3239770877 13.0147991528 1.4900537671 4.36788 0.619173 1.23636 4.36857 0.539252 1.27325 4.38008 0.362681 1.33432 4.37804 0.568843 1.26031 -4.71273 7.09999 -3.75734 -4.587 15.8637 -2.65444 -0.0 0.0 -0.0 6.1832 -0.0108216 11.9781 -6.95719 1.20932 60.3013 1.89895 -43.2449 0.752766 85.1428 -4.44363 -8.87269 1.37228 -10.7567 4.69251 -0.0 0.0 -0.0 12.5829 17.8498 -25.4125 -19.9398 -13.1596 -66.8406 0.23548 6.65362 -0.0136882 -73.0873 6.94043 -5.31927 4.91947 18.1876 -25.7739 0.0 0.0 0.0 1.12585 28.6737 8.0503 -23.035 0.247264 3.5025 35.9162 -13.8535 -4.75207 -22.7848 0.0 0.0 -0.0 0.0 -0.0 50.1563 26.3331 -10.9743 -22.1145 -0.264528 -3.3623 0.76739 21.5751 0.129378 5.04334 -0.0 -0.0 0.0 0.0 0.0 
